<?xml version="1.0" encoding="utf-8"?><!DOCTYPE svg PUBLIC "-//W3C//DTD SVG 1.1//EN" "http://www.w3.org/Graphics/SVG/1.1/DTD/svg11.dtd"><svg id="system-daishouhuo" width="128" height="128" style="width:128px;height:128px;" version="1.1" xmlns="http://www.w3.org/2000/svg" viewBox="0 0 1024 1024" enable-background="new 0 0 1024 1024" xml:space="preserve"><path fill="#666" d="M512 85 q-7 0 -14.5 1 q-7.5 1 -15.5 4 l-256 96 q-24 10 -39.5 31 q-15.5 21 -15.5 48 l0 202 q0 134 70 254.5 q70 120.5 191 180.5 q16 8 32.5 2 q16.5 -6 24.5 -24 q6 -16 -1 -32 q-7 -16 -23 -24 l0 0 q-46 -25 -85 -63 q-39 -38 -66 -86 q-27 -48 -42.5 -101.5 q-15.5 -53.5 -15.5 -106.5 l0 -201 q0 0 0 0 q0 0 0 0 l256 -96 q0 0 0 0 q0 0 0 0 l256 96 q0 0 0 0 q0 0 0 0 l0 132 q0 18 12.5 30.5 q12.5 12.5 30.5 12.5 q18 0 30 -12.5 q12 -12.5 12 -30.5 l0 -133 q0 -27 -15.5 -48 q-15.5 -21 -39.5 -31 l-256 -96 q-8 -3 -14.5 -4 q-6.5 -1 -15.5 -1 ZM725 932 q89 0 151.5 -62.5 q62.5 -62.5 62.5 -151.5 q0 -88 -62.5 -150.5 q-62.5 -62.5 -151.5 -62.5 q-88 0 -150.5 62.5 q-62.5 62.5 -62.5 150.5 q0 89 62.5 151.5 q62.5 62.5 150.5 62.5 ZM512 490 q0 0 0 0 q0 0 0 0 q0 0 0 0 q0 0 0 0 q0 0 0 0 q0 0 0 0 l0 0 q0 0 0 0 q0 0 0 0 l0 0 q0 0 0 0 q0 0 0 0 l0 0 q0 0 0 0 q0 0 0 0 l0 0 q0 0 0 0 q0 0 0 0 q0 0 0 0 q0 0 0 0 l0 0 ZM725 718 q-26 0 -45 -18.5 q-19 -18.5 -19 -45.5 q0 -26 19 -45 q19 -19 45 -19 q27 0 45.5 19 q18.5 19 18.5 45 q0 27 -18.5 45.5 q-18.5 18.5 -45.5 18.5 ZM725 846 q-26 0 -49.5 -10 q-23.5 -10 -41.5 -29 q-6 -7 -5 -15 q1 -8 10 -12 q20 -9 42 -14 q22 -5 44 -5 q23 0 44.5 5 q21.5 5 42.5 14 q8 4 9 12 q1 8 -4 15 q-18 19 -41.5 29 q-23.5 10 -50.5 10 Z"/></svg>