<?xml version="1.0" encoding="utf-8"?><!DOCTYPE svg PUBLIC "-//W3C//DTD SVG 1.1//EN" "http://www.w3.org/Graphics/SVG/1.1/DTD/svg11.dtd"><svg id="system-daishouhuo" width="128" height="128" style="width:128px;height:128px;" version="1.1" xmlns="http://www.w3.org/2000/svg" viewBox="0 0 1024 1024" enable-background="new 0 0 1024 1024" xml:space="preserve"><path fill="#666" d="M920 745.13 q-9 -107 -65.5 -197 q-56.5 -90 -150.5 -143 l74 -128 q6 -9 3 -19 q-3 -10 -13 -15 q-8 -5 -18 -2 q-10 3 -16 12 l-74 128 q-86 -36 -180 -36 q-94 0 -180 36 l-74 -128 q-6 -9 -16 -12 q-10 -3 -18 2 q-10 5 -13 15 q-3 10 3 19 l74 128 q-94 53 -150.5 143 q-56.5 90 -65.5 197 l880 0 ZM280 635.13 q-21 0 -35.5 -14.5 q-14.5 -14.5 -14.5 -35.5 q0 -21 14.5 -35.5 q14.5 -14.5 35.5 -14.5 q21 0 35.5 14.5 q14.5 14.5 14.5 35.5 q0 21 -14.5 35.5 q-14.5 14.5 -35.5 14.5 ZM680 635.13 q-21 0 -35.5 -14.5 q-14.5 -14.5 -14.5 -35.5 q0 -21 14.5 -35.5 q14.5 -14.5 35.5 -14.5 q21 0 35.5 14.5 q14.5 14.5 14.5 35.5 q0 21 -14.5 35.5 q-14.5 14.5 -35.5 14.5 Z"/></svg>