<?xml version="1.0" encoding="utf-8"?><!DOCTYPE svg PUBLIC "-//W3C//DTD SVG 1.1//EN" "http://www.w3.org/Graphics/SVG/1.1/DTD/svg11.dtd"><svg id="system-daishouhuo" width="128" height="128" style="width:128px;height:128px;" version="1.1" xmlns="http://www.w3.org/2000/svg" viewBox="0 0 1024 1024" enable-background="new 0 0 1024 1024" xml:space="preserve"><path fill="#666" d="M240 800 q33 0 56.5 -23.5 q23.5 -23.5 23.5 -56.5 q0 -33 -23.5 -56.5 q-23.5 -23.5 -56.5 -23.5 q-33 0 -56.5 23.5 q-23.5 23.5 -23.5 56.5 q0 33 23.5 56.5 q23.5 23.5 56.5 23.5 ZM480 800 q33 0 56.5 -23.5 q23.5 -23.5 23.5 -56.5 q0 -33 -23.5 -56.5 q-23.5 -23.5 -56.5 -23.5 q-33 0 -56.5 23.5 q-23.5 23.5 -23.5 56.5 q0 33 23.5 56.5 q23.5 23.5 56.5 23.5 ZM720 800 q33 0 56.5 -23.5 q23.5 -23.5 23.5 -56.5 q0 -33 -23.5 -56.5 q-23.5 -23.5 -56.5 -23.5 q-33 0 -56.5 23.5 q-23.5 23.5 -23.5 56.5 q0 33 23.5 56.5 q23.5 23.5 56.5 23.5 ZM240 560 q33 0 56.5 -23.5 q23.5 -23.5 23.5 -56.5 q0 -33 -23.5 -56.5 q-23.5 -23.5 -56.5 -23.5 q-33 0 -56.5 23.5 q-23.5 23.5 -23.5 56.5 q0 33 23.5 56.5 q23.5 23.5 56.5 23.5 ZM480 560 q33 0 56.5 -23.5 q23.5 -23.5 23.5 -56.5 q0 -33 -23.5 -56.5 q-23.5 -23.5 -56.5 -23.5 q-33 0 -56.5 23.5 q-23.5 23.5 -23.5 56.5 q0 33 23.5 56.5 q23.5 23.5 56.5 23.5 ZM720 560 q33 0 56.5 -23.5 q23.5 -23.5 23.5 -56.5 q0 -33 -23.5 -56.5 q-23.5 -23.5 -56.5 -23.5 q-33 0 -56.5 23.5 q-23.5 23.5 -23.5 56.5 q0 33 23.5 56.5 q23.5 23.5 56.5 23.5 ZM240 320 q33 0 56.5 -23.5 q23.5 -23.5 23.5 -56.5 q0 -33 -23.5 -56.5 q-23.5 -23.5 -56.5 -23.5 q-33 0 -56.5 23.5 q-23.5 23.5 -23.5 56.5 q0 33 23.5 56.5 q23.5 23.5 56.5 23.5 ZM480 320 q33 0 56.5 -23.5 q23.5 -23.5 23.5 -56.5 q0 -33 -23.5 -56.5 q-23.5 -23.5 -56.5 -23.5 q-33 0 -56.5 23.5 q-23.5 23.5 -23.5 56.5 q0 33 23.5 56.5 q23.5 23.5 56.5 23.5 ZM720 320 q33 0 56.5 -23.5 q23.5 -23.5 23.5 -56.5 q0 -33 -23.5 -56.5 q-23.5 -23.5 -56.5 -23.5 q-33 0 -56.5 23.5 q-23.5 23.5 -23.5 56.5 q0 33 23.5 56.5 q23.5 23.5 56.5 23.5 Z"/></svg>