<?xml version="1.0" encoding="utf-8"?><!DOCTYPE svg PUBLIC "-//W3C//DTD SVG 1.1//EN" "http://www.w3.org/Graphics/SVG/1.1/DTD/svg11.dtd"><svg id="system-daishouhuo" width="128" height="128" style="width:128px;height:128px;" version="1.1" xmlns="http://www.w3.org/2000/svg" viewBox="0 0 1024 1024" enable-background="new 0 0 1024 1024" xml:space="preserve"><path fill="#666" d="M444 498 q-20 -5 -37.5 -14.5 q-17.5 -9.5 -32.5 -23.5 l-112 310 q-1 9 -1 9 l4 43 q2 12 13.5 16.5 q11.5 4.5 20.5 -4.5 l32 -31 q4 -4 5 -7 l108 -298 ZM480 462 q50 0 85 -35 q35 -35 35 -85 q0 -39 -22.5 -69.5 q-22.5 -30.5 -57.5 -42.5 l0 -48 q0 -17 -11.5 -28.5 q-11.5 -11.5 -28.5 -11.5 q-17 0 -28.5 11.5 q-11.5 11.5 -11.5 28.5 l0 48 q-35 12 -57.5 42.5 q-22.5 30.5 -22.5 69.5 q0 50 35 85 q35 35 85 35 ZM480 382 q-17 0 -28.5 -11.5 q-11.5 -11.5 -11.5 -28.5 q0 -17 11.5 -28.5 q11.5 -11.5 28.5 -11.5 q17 0 28.5 11.5 q11.5 11.5 11.5 28.5 q0 17 -11.5 28.5 q-11.5 11.5 -28.5 11.5 ZM624 796 q5 7 5 7 l32 31 q9 9 20.5 4.5 q11.5 -4.5 13.5 -16.5 l4 -43 q0 -6 -1 -9 l-112 -310 q-15 14 -32.5 23.5 q-17.5 9.5 -37.5 14.5 l108 298 Z"/></svg>