<?xml version="1.0" encoding="utf-8"?><!DOCTYPE svg PUBLIC "-//W3C//DTD SVG 1.1//EN" "http://www.w3.org/Graphics/SVG/1.1/DTD/svg11.dtd"><svg id="system-daishouhuo" width="128" height="128" style="width:128px;height:128px;" version="1.1" xmlns="http://www.w3.org/2000/svg" viewBox="0 0 1024 1024" enable-background="new 0 0 1024 1024" xml:space="preserve"><path fill="#666" d="M480 824 q65 0 120.5 -32 q55.5 -32 87.5 -88 l72 0 q17 0 28.5 -11.5 q11.5 -11.5 11.5 -28.5 q0 -17 -11.5 -28.5 q-11.5 -11.5 -28.5 -11.5 l-44 0 q3 -20 3.5 -40 q0.5 -20 0.5 -40 l40 0 q17 0 28.5 -11.5 q11.5 -11.5 11.5 -28.5 q0 -17 -11.5 -28.5 q-11.5 -11.5 -28.5 -11.5 l-40 0 q0 -20 -0.5 -40 q-0.5 -20 -3.5 -40 l44 0 q17 0 28.5 -11.5 q11.5 -11.5 11.5 -28.5 q0 -17 -11.5 -28.5 q-11.5 -11.5 -28.5 -11.5 l-72 0 q-14 -24 -32.5 -43.5 q-18.5 -19.5 -41.5 -34.5 l38 -38 q11 -11 11 -28 q0 -17 -11 -28 q-12 -12 -28.5 -12 q-16.5 0 -27.5 11 l-60 59 q-28 -9 -57 -9 q-29 0 -57 9 l-58 -58 q-11 -11 -28 -11 q-17 0 -28 11 q-12 12 -12 28.5 q0 16.5 11 27.5 l37 38 q-23 15 -40.5 35 q-17.5 20 -31.5 43 l-72 0 q-17 0 -28.5 11.5 q-11.5 11.5 -11.5 28.5 q0 17 11.5 28.5 q11.5 11.5 28.5 11.5 l44 0 q-3 20 -3.5 40 q-0.5 20 -0.5 40 l-40 0 q-17 0 -28.5 11.5 q-11.5 11.5 -11.5 28.5 q0 17 11.5 28.5 q11.5 11.5 28.5 11.5 l40 0 q0 20 0.5 40 q0.5 20 3.5 40 l-44 0 q-17 0 -28.5 11.5 q-11.5 11.5 -11.5 28.5 q0 17 11.5 28.5 q11.5 11.5 28.5 11.5 l72 0 q32 56 87.5 88 q55.5 32 120.5 32 ZM480 744 q-66 0 -113 -47 q-47 -47 -47 -113 l0 -160 q0 -66 47 -113 q47 -47 113 -47 q66 0 113 47 q47 47 47 113 l0 160 q0 66 -47 113 q-47 47 -113 47 ZM440 624 q-17 0 -28.5 -11.5 q-11.5 -11.5 -11.5 -28.5 q0 -17 11.5 -28.5 q11.5 -11.5 28.5 -11.5 l80 0 q17 0 28.5 11.5 q11.5 11.5 11.5 28.5 q0 17 -11.5 28.5 q-11.5 11.5 -28.5 11.5 l-80 0 ZM440 464 q-17 0 -28.5 -11.5 q-11.5 -11.5 -11.5 -28.5 q0 -17 11.5 -28.5 q11.5 -11.5 28.5 -11.5 l80 0 q17 0 28.5 11.5 q11.5 11.5 11.5 28.5 q0 17 -11.5 28.5 q-11.5 11.5 -28.5 11.5 l-80 0 ZM480 504 q0 0 0 0 q0 0 0 0 l0 0 q0 0 0 0 q0 0 0 0 q0 0 0 0 q0 0 0 0 l0 0 q0 0 0 0 q0 0 0 0 Z"/></svg>