<?xml version="1.0" encoding="utf-8"?><!DOCTYPE svg PUBLIC "-//W3C//DTD SVG 1.1//EN" "http://www.w3.org/Graphics/SVG/1.1/DTD/svg11.dtd"><svg id="system-daishouhuo" width="128" height="128" style="width:128px;height:128px;" version="1.1" xmlns="http://www.w3.org/2000/svg" viewBox="0 0 1024 1024" enable-background="new 0 0 1024 1024" xml:space="preserve"><path fill="#666" d="M622 354 q11 -11 28 -11 q17 0 28 11 q11 11 11 28 q0 17 -11 28 l-226 226 q-12 12 -28 12 q-16 0 -28 -12 l-114 -114 q-11 -11 -11 -28 q0 -17 11 -28 q11 -11 28 -11 q17 0 28 11 l86 86 l198 -198 ZM480 880 q83 0 156 -31.5 q73 -31.5 127 -85.5 q54 -54 85.5 -127 q31.5 -73 31.5 -156 q0 -83 -31.5 -156 q-31.5 -73 -85.5 -127 q-54 -54 -127 -85.5 q-73 -31.5 -156 -31.5 q-83 0 -156 31.5 q-73 31.5 -127 85.5 q-54 54 -85.5 127 q-31.5 73 -31.5 156 q0 83 31.5 156 q31.5 73 85.5 127 q54 54 127 85.5 q73 31.5 156 31.5 Z"/></svg>