<?xml version="1.0" encoding="utf-8"?><!DOCTYPE svg PUBLIC "-//W3C//DTD SVG 1.1//EN" "http://www.w3.org/Graphics/SVG/1.1/DTD/svg11.dtd"><svg id="system-daishouhuo" width="128" height="128" style="width:128px;height:128px;" version="1.1" xmlns="http://www.w3.org/2000/svg" viewBox="0 0 1024 1024" enable-background="new 0 0 1024 1024" xml:space="preserve"><path fill="#666" d="M348 636 q-11 11 -11 28 q0 17 11 28 q11 11 28 11 q17 0 28 -11 l184 -184 q6 -6 8.5 -13 q2.5 -7 2.5 -15 q0 -8 -2.5 -15 q-2.5 -7 -8.5 -13 l-184 -184 q-11 -11 -28 -11 q-17 0 -28 11 q-11 11 -11 28 q0 17 11 28 l156 156 l-156 156 Z"/></svg>