<?xml version="1.0" encoding="utf-8"?><!DOCTYPE svg PUBLIC "-//W3C//DTD SVG 1.1//EN" "http://www.w3.org/Graphics/SVG/1.1/DTD/svg11.dtd"><svg id="system-daishouhuo" width="128" height="128" style="width:128px;height:128px;" version="1.1" xmlns="http://www.w3.org/2000/svg" viewBox="0 0 1024 1024" enable-background="new 0 0 1024 1024" xml:space="preserve"><path fill="#666" d="M721 781 q12 12 30 12 q18 0 30 -12 q12 -12 12 -30 q0 -18 -12 -30 l-209 -209 l209 -209 q12 -12 12 -30 q0 -18 -12 -30 q-12 -12 -30 -12 q-18 0 -30 12 l-209 209 l-209 -209 q-12 -12 -30 -12 q-18 0 -30 12 q-12 12 -12 30 q0 18 12 30 l209 209 l-209 209 q-12 12 -12 30 q0 18 12 30 q12 12 30 12 q18 0 30 -12 l209 -209 l209 209 Z"/></svg>