<?xml version="1.0" encoding="utf-8"?><!DOCTYPE svg PUBLIC "-//W3C//DTD SVG 1.1//EN" "http://www.w3.org/Graphics/SVG/1.1/DTD/svg11.dtd"><svg id="system-daishouhuo" width="128" height="128" style="width:128px;height:128px;" version="1.1" xmlns="http://www.w3.org/2000/svg" viewBox="0 0 1024 1024" enable-background="new 0 0 1024 1024" xml:space="preserve"><path fill="#666" d="M372 347.48 q13 -13 13 -30.5 q0 -17.5 -13 -30.5 q-13 -13 -30.5 -13 q-17.5 0 -30.5 13 l-196 196 q-6 7 -9 14 q-3 7 -3 16 q0 9 3 16 q3 7 9 14 l196 196 q12 12 30 12 q18 0 30 -12 q12 -12 12 -30 q0 -18 -12 -30 l-165 -165 l166 -166 ZM653 676.48 q-13 13 -13 30.5 q0 17.5 13 30.5 q13 13 30 13.5 q17 0.5 30 -12.5 l196 -196 q6 -7 9 -14 q3 -7 3 -16 q0 -9 -3 -16 q-3 -7 -9 -14 l-196 -196 q-12 -12 -30 -12 q-18 0 -30 12 q-12 12 -12 30 q0 18 12 30 l165 165 l-165 165 Z"/></svg>