<?xml version="1.0" encoding="utf-8"?><!DOCTYPE svg PUBLIC "-//W3C//DTD SVG 1.1//EN" "http://www.w3.org/Graphics/SVG/1.1/DTD/svg11.dtd"><svg id="system-daishouhuo" width="128" height="128" style="width:128px;height:128px;" version="1.1" xmlns="http://www.w3.org/2000/svg" viewBox="0 0 1024 1024" enable-background="new 0 0 1024 1024" xml:space="preserve"><path fill="#666" d="M480 560 q-33 0 -56.5 -23.5 q-23.5 -23.5 -23.5 -56.5 q0 -33 23.5 -56.5 q23.5 -23.5 56.5 -23.5 q33 0 56.5 23.5 q23.5 23.5 23.5 56.5 q0 33 -23.5 56.5 q-23.5 23.5 -56.5 23.5 ZM320 697 q0 -24 13 -44 q13 -20 36 -30 q26 -11 53.5 -17 q27.5 -6 57.5 -6 q30 0 57.5 6 q27.5 6 53.5 17 q23 10 36 30 q13 20 13 44 l0 23 l-320 0 l0 -23 ZM720 880 q33 0 56.5 -23.5 q23.5 -23.5 23.5 -56.5 l0 -447 q0 -16 -6 -30.5 q-6 -14.5 -17 -25.5 l-194 -194 q-11 -11 -25.5 -17 q-14.5 -6 -30.5 -6 l-287 0 q-33 0 -56.5 23.5 q-23.5 23.5 -23.5 56.5 l0 640 q0 33 23.5 56.5 q23.5 23.5 56.5 23.5 l480 0 Z"/></svg>