<?xml version="1.0" encoding="utf-8"?><!DOCTYPE svg PUBLIC "-//W3C//DTD SVG 1.1//EN" "http://www.w3.org/Graphics/SVG/1.1/DTD/svg11.dtd"><svg id="system-daishouhuo" width="128" height="128" style="width:128px;height:128px;" version="1.1" xmlns="http://www.w3.org/2000/svg" viewBox="0 0 1024 1024" enable-background="new 0 0 1024 1024" xml:space="preserve"><path fill="#666" d="M427 469 q18 0 30 -12 q12 -12 12 -30 l0 -256 q0 -18 -12 -30.5 q-12 -12.5 -30 -12.5 l-256 0 q-18 0 -30.5 12.5 q-12.5 12.5 -12.5 30.5 l0 256 q0 18 12.5 30 q12.5 12 30.5 12 l256 0 ZM853 469 q18 0 30.5 -12 q12.5 -12 12.5 -30 l0 -256 q0 -18 -12.5 -30.5 q-12.5 -12.5 -30.5 -12.5 l-256 0 q-18 0 -30 12.5 q-12 12.5 -12 30.5 l0 256 q0 18 12 30 q12 12 30 12 l256 0 ZM427 896 q18 0 30 -12.5 q12 -12.5 12 -30.5 l0 -256 q0 -18 -12 -30 q-12 -12 -30 -12 l-256 0 q-18 0 -30.5 12 q-12.5 12 -12.5 30 l0 256 q0 18 12.5 30.5 q12.5 12.5 30.5 12.5 l256 0 ZM725 896 q18 0 30.5 -11.5 q12.5 -11.5 12.5 -30.5 l0 -86 l85 0 q18 0 30.5 -12.5 q12.5 -12.5 12.5 -30.5 q0 -18 -11.5 -30 q-11.5 -12 -30.5 -12 l-86 0 l0 -86 q0 -18 -12.5 -30 q-12.5 -12 -30.5 -12 q-18 0 -30 11.5 q-12 11.5 -12 29.5 l0 87 l-86 0 q-18 0 -30 12 q-12 12 -12 30 q0 18 11.5 30.5 q11.5 12.5 29.5 12.5 l87 0 l0 85 q0 18 12 30.5 q12 12.5 30 12.5 Z"/></svg>