<?xml version="1.0" encoding="utf-8"?><!DOCTYPE svg PUBLIC "-//W3C//DTD SVG 1.1//EN" "http://www.w3.org/Graphics/SVG/1.1/DTD/svg11.dtd"><svg id="system-daishouhuo" width="128" height="128" style="width:128px;height:128px;" version="1.1" xmlns="http://www.w3.org/2000/svg" viewBox="0 0 1024 1024" enable-background="new 0 0 1024 1024" xml:space="preserve"><path fill="#666" d="M520 320 q0 17 11.5 28.5 q11.5 11.5 28.5 11.5 l240 0 q17 0 28.5 -11.5 q11.5 -11.5 11.5 -28.5 l0 -160 q0 -17 -11.5 -28.5 q-11.5 -11.5 -28.5 -11.5 l-240 0 q-17 0 -28.5 11.5 q-11.5 11.5 -11.5 28.5 l0 160 ZM120 480 q0 17 11.5 28.5 q11.5 11.5 28.5 11.5 l240 0 q17 0 28.5 -11.5 q11.5 -11.5 11.5 -28.5 l0 -320 q0 -17 -11.5 -28.5 q-11.5 -11.5 -28.5 -11.5 l-240 0 q-17 0 -28.5 11.5 q-11.5 11.5 -11.5 28.5 l0 320 ZM520 800 q0 17 11.5 28.5 q11.5 11.5 28.5 11.5 l240 0 q17 0 28.5 -11.5 q11.5 -11.5 11.5 -28.5 l0 -320 q0 -17 -11.5 -28.5 q-11.5 -11.5 -28.5 -11.5 l-240 0 q-17 0 -28.5 11.5 q-11.5 11.5 -11.5 28.5 l0 320 ZM120 800 q0 17 11.5 28.5 q11.5 11.5 28.5 11.5 l240 0 q17 0 28.5 -11.5 q11.5 -11.5 11.5 -28.5 l0 -160 q0 -17 -11.5 -28.5 q-11.5 -11.5 -28.5 -11.5 l-240 0 q-17 0 -28.5 11.5 q-11.5 11.5 -11.5 28.5 l0 160 ZM200 200 l160 0 l0 240 l-160 0 l0 -240 ZM600 520 l160 0 l0 240 l-160 0 l0 -240 ZM600 200 l160 0 l0 80 l-160 0 l0 -80 ZM200 680 l160 0 l0 80 l-160 0 l0 -80 ZM360 440 l0 0 l0 0 l0 0 l0 0 ZM600 280 l0 0 l0 0 l0 0 l0 0 ZM600 520 l0 0 l0 0 l0 0 l0 0 ZM360 680 l0 0 l0 0 l0 0 l0 0 Z"/></svg>