<?xml version="1.0" encoding="utf-8"?><!DOCTYPE svg PUBLIC "-//W3C//DTD SVG 1.1//EN" "http://www.w3.org/Graphics/SVG/1.1/DTD/svg11.dtd"><svg id="system-daishouhuo" width="128" height="128" style="width:128px;height:128px;" version="1.1" xmlns="http://www.w3.org/2000/svg" viewBox="0 0 1024 1024" enable-background="new 0 0 1024 1024" xml:space="preserve"><path fill="#666" d="M725 853 q9 0 17 -2.5 q8 -2.5 15 -7.5 l128 -74 q15 -9 23.5 -23.5 q8.5 -14.5 8.5 -31.5 l0 -150 q0 -17 -8.5 -31.5 q-8.5 -14.5 -23.5 -22.5 l-128 -75 q-7 -4 -15 -7 q-8 -3 -17 -3 q-8 0 -16.5 2.5 q-8.5 2.5 -16.5 7.5 l-128 75 q-15 8 -23 22.5 q-8 14.5 -8 31.5 l0 150 q0 17 8 31.5 q8 14.5 23 23.5 l128 74 q8 6 16.5 8 q8.5 2 16.5 2 ZM430 809 q8 0 14 -3.5 q6 -3.5 10 -10.5 q5 -6 5 -13.5 q0 -7.5 -4 -15.5 q-13 -30 -20 -61.5 q-7 -31.5 -7 -63.5 q0 -22 3 -43.5 q3 -21.5 10 -43.5 q2 -8 1 -16 q-1 -8 -6 -15 q-4 -6 -10.5 -9.5 q-6.5 -3.5 -14.5 -3.5 q-68 2 -133 19.5 q-65 17.5 -124 47.5 q-32 16 -50.5 47 q-18.5 31 -18.5 66 l0 34 q0 35 25 60 q25 25 61 25 l259 0 ZM427 468 q70 0 120 -50 q50 -50 50 -121 q0 -70 -50 -120 q-50 -50 -120 -50 q-71 0 -121 50 q-50 50 -50 120 q0 71 50 121 q50 50 121 50 ZM725 489 l101 58 l-101 59 l-100 -59 l100 -58 ZM757 653 l96 -57 l0 117 l-96 56 l0 -116 ZM597 597 l96 57 l0 116 l-96 -57 l0 -116 Z"/></svg>