<?xml version="1.0" encoding="utf-8"?><!DOCTYPE svg PUBLIC "-//W3C//DTD SVG 1.1//EN" "http://www.w3.org/Graphics/SVG/1.1/DTD/svg11.dtd"><svg id="system-daishouhuo" width="128" height="128" style="width:128px;height:128px;" version="1.1" xmlns="http://www.w3.org/2000/svg" viewBox="0 0 1024 1024" enable-background="new 0 0 1024 1024" xml:space="preserve"><path fill="#666" d="M85 724 q0 35 25 60 q25 25 61 25 l256 0 q18 0 30 -12 q12 -12 12 -30 q0 -18 -12 -30.5 q-12 -12.5 -30 -12.5 l-256 0 l0 -34 q0 -12 5.5 -21.5 q5.5 -9.5 15.5 -14.5 q38 -20 99 -39 q61 -19 137 -19 l0 0 q17 0 29 -11.5 q12 -11.5 12 -29.5 q0 -20 -12 -32 q-12 -12 -29 -12 l0 0 q-73 0 -141.5 17 q-68.5 17 -132.5 49 q-32 16 -50.5 47 q-18.5 31 -18.5 66 l0 34 ZM725 853 q9 0 17 -2.5 q8 -2.5 15 -7.5 l128 -74 q15 -9 23.5 -23.5 q8.5 -14.5 8.5 -31.5 l0 -150 q0 -17 -8.5 -31.5 q-8.5 -14.5 -23.5 -22.5 l-128 -75 q-7 -4 -15 -7 q-8 -3 -17 -3 q-8 0 -16.5 2.5 q-8.5 2.5 -16.5 7.5 l-128 75 q-15 8 -23 22.5 q-8 14.5 -8 31.5 l0 150 q0 17 8 31.5 q8 14.5 23 23.5 l128 74 q8 6 16.5 8 q8.5 2 16.5 2 ZM427 468 q70 0 120 -50 q50 -50 50 -121 q0 -70 -50 -120 q-50 -50 -120 -50 q-71 0 -121 50 q-50 50 -50 120 q0 71 50 121 q50 50 121 50 ZM427 383 q-36 0 -61 -25 q-25 -25 -25 -61 q0 -35 25 -60 q25 -25 61 -25 q35 0 60 25 q25 25 25 60 q0 36 -25 61 q-25 25 -60 25 ZM427 297 q0 0 0 0 q0 0 0 0 q0 0 0 0 q0 0 0 0 q0 0 0 0 q0 0 0 0 q0 0 0 0 q0 0 0 0 ZM427 724 q0 0 0 0 q0 0 0 0 l0 0 q0 0 0 0 q0 0 0 0 q0 0 0 0 q0 0 0 0 l0 0 l0 0 ZM725 489 l101 58 l-101 59 l-100 -59 l100 -58 ZM757 653 l96 -57 l0 117 l-96 56 l0 -116 ZM597 597 l96 57 l0 116 l-96 -57 l0 -116 Z"/></svg>