<?xml version="1.0" encoding="utf-8"?><!DOCTYPE svg PUBLIC "-//W3C//DTD SVG 1.1//EN" "http://www.w3.org/Graphics/SVG/1.1/DTD/svg11.dtd"><svg id="system-daishouhuo" width="128" height="128" style="width:128px;height:128px;" version="1.1" xmlns="http://www.w3.org/2000/svg" viewBox="0 0 1024 1024" enable-background="new 0 0 1024 1024" xml:space="preserve"><path fill="#666" d="M480 623 q8 0 15 -2.5 q7 -2.5 13 -8.5 l144 -144 q12 -12 11.5 -28 q-0.5 -16 -11.5 -28 q-12 -12 -28.5 -12.5 q-16.5 -0.5 -28.5 11.5 l-75 75 l0 -286 q0 -17 -11.5 -28.5 q-11.5 -11.5 -28.5 -11.5 q-17 0 -28.5 11.5 q-11.5 11.5 -11.5 28.5 l0 286 l-75 -75 q-12 -12 -28.5 -11.5 q-16.5 0.5 -28.5 12.5 q-11 12 -11.5 28 q-0.5 16 11.5 28 l144 144 q6 6 13 8.5 q7 2.5 15 2.5 ZM720 800 q33 0 56.5 -23.5 q23.5 -23.5 23.5 -56.5 l0 -80 q0 -17 -11.5 -28.5 q-11.5 -11.5 -28.5 -11.5 q-17 0 -28.5 11.5 q-11.5 11.5 -11.5 28.5 l0 80 q0 0 0 0 q0 0 0 0 l-480 0 q0 0 0 0 q0 0 0 0 l0 -80 q0 -17 -11.5 -28.5 q-11.5 -11.5 -28.5 -11.5 q-17 0 -28.5 11.5 q-11.5 11.5 -11.5 28.5 l0 80 q0 33 23.5 56.5 q23.5 23.5 56.5 23.5 l480 0 Z"/></svg>