<?xml version="1.0" encoding="utf-8"?><!DOCTYPE svg PUBLIC "-//W3C//DTD SVG 1.1//EN" "http://www.w3.org/Graphics/SVG/1.1/DTD/svg11.dtd"><svg id="system-daishouhuo" width="128" height="128" style="width:128px;height:128px;" version="1.1" xmlns="http://www.w3.org/2000/svg" viewBox="0 0 1024 1024" enable-background="new 0 0 1024 1024" xml:space="preserve"><path fill="#666" d="M480 680 q-17 0 -28.5 -11.5 q-11.5 -11.5 -11.5 -28.5 q0 -17 11.5 -28.5 q11.5 -11.5 28.5 -11.5 q17 0 28.5 11.5 q11.5 11.5 11.5 28.5 q0 17 -11.5 28.5 q-11.5 11.5 -28.5 11.5 ZM480 520 q-17 0 -28.5 -11.5 q-11.5 -11.5 -11.5 -28.5 l0 -160 q0 -17 11.5 -28.5 q11.5 -11.5 28.5 -11.5 q17 0 28.5 11.5 q11.5 11.5 11.5 28.5 l0 160 q0 17 -11.5 28.5 q-11.5 11.5 -28.5 11.5 ZM480 880 q83 0 156 -31.5 q73 -31.5 127 -85.5 q54 -54 85.5 -127 q31.5 -73 31.5 -156 q0 -83 -31.5 -156 q-31.5 -73 -85.5 -127 q-54 -54 -127 -85.5 q-73 -31.5 -156 -31.5 q-83 0 -156 31.5 q-73 31.5 -127 85.5 q-54 54 -85.5 127 q-31.5 73 -31.5 156 q0 83 31.5 156 q31.5 73 85.5 127 q54 54 127 85.5 q73 31.5 156 31.5 Z"/></svg>