<?xml version="1.0" encoding="utf-8"?><!DOCTYPE svg PUBLIC "-//W3C//DTD SVG 1.1//EN" "http://www.w3.org/Graphics/SVG/1.1/DTD/svg11.dtd"><svg id="system-daishouhuo" width="128" height="128" style="width:128px;height:128px;" version="1.1" xmlns="http://www.w3.org/2000/svg" viewBox="0 0 1024 1024" enable-background="new 0 0 1024 1024" xml:space="preserve"><path fill="#666" d="M478 720 q-21 0 -35.5 -14.5 q-14.5 -14.5 -14.5 -35.5 q0 -21 14.5 -35.5 q14.5 -14.5 35.5 -14.5 q21 0 35.5 14.5 q14.5 14.5 14.5 35.5 q0 21 -14.5 35.5 q-14.5 14.5 -35.5 14.5 ZM480 880 q83 0 156 -31.5 q73 -31.5 127 -85.5 q54 -54 85.5 -127 q31.5 -73 31.5 -156 q0 -83 -31.5 -156 q-31.5 -73 -85.5 -127 q-54 -54 -127 -85.5 q-73 -31.5 -156 -31.5 q-83 0 -156 31.5 q-73 31.5 -127 85.5 q-54 54 -85.5 127 q-31.5 73 -31.5 156 q0 83 31.5 156 q31.5 73 85.5 127 q54 54 127 85.5 q73 31.5 156 31.5 ZM480 800 q-134 0 -227 -93 q-93 -93 -93 -227 q0 -134 93 -227 q93 -93 227 -93 q134 0 227 93 q93 93 93 227 q0 134 -93 227 q-93 93 -227 93 ZM480 480 q0 0 0 0 q0 0 0 0 q0 0 0 0 q0 0 0 0 q0 0 0 0 q0 0 0 0 q0 0 0 0 q0 0 0 0 ZM484 308 q-18 0 -34.5 8 q-16.5 8 -27.5 23 q-10 14 -25 17 q-15 3 -29 -5 q-11 -7 -13.5 -20.5 q-2.5 -13.5 4.5 -25.5 q18 -33 52.5 -49 q34.5 -16 72.5 -16 q55 0 96.5 32.5 q41.5 32.5 41.5 83.5 q0 32 -16.5 58 q-16.5 26 -39.5 48 q-16 15 -30 31.5 q-14 16.5 -18 37.5 q-3 15 -13.5 25 q-10.5 10 -25.5 10 q-14 0 -24.5 -9.5 q-10.5 -9.5 -10.5 -23.5 q0 -30 17.5 -54 q17.5 -24 40.5 -44 q17 -15 30.5 -32 q13.5 -17 13.5 -39 q0 -24 -18.5 -40 q-18.5 -16 -43.5 -16 Z"/></svg>