<?xml version="1.0" encoding="utf-8"?><!DOCTYPE svg PUBLIC "-//W3C//DTD SVG 1.1//EN" "http://www.w3.org/Graphics/SVG/1.1/DTD/svg11.dtd"><svg id="system-daishouhuo" width="128" height="128" style="width:128px;height:128px;" version="1.1" xmlns="http://www.w3.org/2000/svg" viewBox="0 0 1024 1024" enable-background="new 0 0 1024 1024" xml:space="preserve"><path fill="#666" d="M256 406 q0 0 0 0 q0 0 0 0 l256 -192 q0 0 0 0 q0 0 0 0 l256 192 q0 0 0 0 q0 0 0 0 l0 384 l-128 0 l0 -214 q0 -18 -12.5 -30 q-12.5 -12 -30.5 -12 l-170 0 q-18 0 -30.5 12 q-12.5 12 -12.5 30 l0 214 l-128 0 l0 -384 ZM171 790 q0 35 25 60 q25 25 60 25 l171 0 q18 0 30 -12.5 q12 -12.5 12 -30.5 l0 -213 q0 0 0 0 q0 0 0 0 l86 0 q0 0 0 0 q0 0 0 0 l0 213 q0 18 12 30.5 q12 12.5 30 12.5 l171 0 q35 0 60 -25 q25 -25 25 -60 l0 -384 q0 -21 -9 -39 q-9 -18 -25 -30 l-256 -192 q-22 -17 -51 -17 q-29 0 -51 17 l-256 192 q-16 12 -25 30 q-9 18 -9 39 l0 384 ZM512 502 l0 0 q0 0 0 0 q0 0 0 0 l0 0 q0 0 0 0 q0 0 0 0 l0 0 l0 0 l0 0 l0 0 q0 0 0 0 q0 0 0 0 l0 0 l0 0 l0 0 Z"/></svg>