<?xml version="1.0" encoding="utf-8"?><!DOCTYPE svg PUBLIC "-//W3C//DTD SVG 1.1//EN" "http://www.w3.org/Graphics/SVG/1.1/DTD/svg11.dtd"><svg id="system-daishouhuo" width="128" height="128" style="width:128px;height:128px;" version="1.1" xmlns="http://www.w3.org/2000/svg" viewBox="0 0 1024 1024" enable-background="new 0 0 1024 1024" xml:space="preserve"><path fill="#666" d="M512 725 q-18 0 -30.5 -12 q-12.5 -12 -12.5 -30 l0 -171 q0 -18 12.5 -30.5 q12.5 -12.5 30.5 -12.5 q18 0 30.5 12.5 q12.5 12.5 12.5 30.5 l0 171 q0 18 -12.5 30 q-12.5 12 -30.5 12 ZM512 384 q-18 0 -30.5 -12.5 q-12.5 -12.5 -12.5 -30.5 q0 -18 12.5 -30 q12.5 -12 30.5 -12 q18 0 30.5 12 q12.5 12 12.5 30 q0 18 -12.5 30.5 q-12.5 12.5 -30.5 12.5 ZM512 939 q89 0 166.5 -34 q77.5 -34 135 -91.5 q57.5 -57.5 91.5 -135 q34 -77.5 34 -166.5 q0 -89 -34 -166.5 q-34 -77.5 -91.5 -135 q-57.5 -57.5 -135 -91.5 q-77.5 -34 -166.5 -34 q-89 0 -166.5 34 q-77.5 34 -135 91.5 q-57.5 57.5 -91.5 135 q-34 77.5 -34 166.5 q0 89 34 166.5 q34 77.5 91.5 135 q57.5 57.5 135 91.5 q77.5 34 166.5 34 ZM512 853 q-143 0 -242 -99 q-99 -99 -99 -242 q0 -143 99 -242 q99 -99 242 -99 q143 0 242 99 q99 99 99 242 q0 143 -99 242 q-99 99 -242 99 ZM512 512 q0 0 0 0 q0 0 0 0 q0 0 0 0 q0 0 0 0 q0 0 0 0 q0 0 0 0 q0 0 0 0 q0 0 0 0 Z"/></svg>