<?xml version="1.0" encoding="utf-8"?><!DOCTYPE svg PUBLIC "-//W3C//DTD SVG 1.1//EN" "http://www.w3.org/Graphics/SVG/1.1/DTD/svg11.dtd"><svg id="system-daishouhuo" width="128" height="128" style="width:128px;height:128px;" version="1.1" xmlns="http://www.w3.org/2000/svg" viewBox="0 0 1024 1024" enable-background="new 0 0 1024 1024" xml:space="preserve"><path fill="#666" d="M460 898 q23 18 52 18 q29 0 52 -18 l288 -224 q17 -13 16.5 -34 q-0.5 -21 -17.5 -34 q-12 -8 -25.5 -8 q-13.5 0 -25.5 8 l-288 223 q0 0 0 0 q0 0 0 0 l-288 -223 q-12 -8 -25.5 -8 q-13.5 0 -25.5 8 q-17 13 -17.5 34 q-0.5 21 16.5 34 l288 224 ZM460 682 q23 18 52 18 q29 0 52 -18 l246 -191 q33 -25 33 -67 q0 -42 -33 -67 l-246 -191 q-23 -18 -52 -18 q-29 0 -52 18 l-246 191 q-33 25 -33 67 q0 42 33 67 l246 191 ZM512 614 q0 0 0 0 q0 0 0 0 l-245 -190 q0 0 0 0 q0 0 0 0 l245 -190 q0 0 0 0 q0 0 0 0 l245 190 q0 0 0 0 q0 0 0 0 l-245 190 ZM512 424 q0 0 0 0 q0 0 0 0 l0 0 q0 0 0 0 q0 0 0 0 l0 0 q0 0 0 0 q0 0 0 0 l0 0 q0 0 0 0 q0 0 0 0 l0 0 Z"/></svg>