<?xml version="1.0" encoding="utf-8"?><!DOCTYPE svg PUBLIC "-//W3C//DTD SVG 1.1//EN" "http://www.w3.org/Graphics/SVG/1.1/DTD/svg11.dtd"><svg id="system-daishouhuo" width="128" height="128" style="width:128px;height:128px;" version="1.1" xmlns="http://www.w3.org/2000/svg" viewBox="0 0 1024 1024" enable-background="new 0 0 1024 1024" xml:space="preserve"><path fill="#666" d="M512 725 q89 0 151 -62 q62 -62 62 -151 q0 -89 -62 -151 q-62 -62 -151 -62 q-89 0 -151 62 q-62 62 -62 151 q0 89 62 151 q62 62 151 62 ZM171 555 q18 0 30 -12.5 q12 -12.5 12 -30.5 q0 -18 -12 -30.5 q-12 -12.5 -30 -12.5 l-86 0 q-18 0 -30 12.5 q-12 12.5 -12 30.5 q0 18 12 30.5 q12 12.5 30 12.5 l86 0 ZM939 555 q18 0 30 -12.5 q12 -12.5 12 -30.5 q0 -18 -12 -30.5 q-12 -12.5 -30 -12.5 l-86 0 q-18 0 -30 12.5 q-12 12.5 -12 30.5 q0 18 12 30.5 q12 12.5 30 12.5 l86 0 ZM512 213 q18 0 30.5 -12 q12.5 -12 12.5 -30 l0 -86 q0 -18 -12.5 -30 q-12.5 -12 -30.5 -12 q-18 0 -30.5 12 q-12.5 12 -12.5 30 l0 86 q0 18 12.5 30 q12.5 12 30.5 12 ZM512 981 q18 0 30.5 -12 q12.5 -12 12.5 -30 l0 -86 q0 -18 -12.5 -30 q-12.5 -12 -30.5 -12 q-18 0 -30.5 12 q-12.5 12 -12.5 30 l0 86 q0 18 12.5 30 q12.5 12 30.5 12 ZM241 301 q13 12 30.5 12.5 q17.5 0.5 29.5 -12.5 q12 -13 12 -30 q0 -17 -12 -30 l-45 -46 q-12 -13 -30 -13 q-18 0 -31 13 q-12 13 -12.5 31 q-0.5 18 12.5 30 l46 45 ZM768 829 q12 13 30 13 q18 0 31 -13 q12 -13 12.5 -31 q0.5 -18 -12.5 -30 l-46 -45 q-13 -12 -30.5 -12.5 q-17.5 -0.5 -29.5 12.5 q-12 12 -12 29.5 q0 17.5 12 30.5 l45 46 ZM723 301 q13 12 30 12 q17 0 30 -12 l46 -45 q13 -12 13 -30 q0 -18 -13 -31 q-13 -12 -31 -12.5 q-18 -0.5 -30 12.5 l-45 46 q-12 13 -12.5 30.5 q-0.5 17.5 12.5 29.5 ZM195 829 q13 12 31 12.5 q18 0.5 30 -12.5 l45 -46 q12 -13 12.5 -30.5 q0.5 -17.5 -12.5 -29.5 q-12 -12 -29.5 -12 q-17.5 0 -30.5 12 l-46 45 q-13 12 -13 30 q0 18 13 31 Z"/></svg>