<?xml version="1.0" encoding="utf-8"?><!DOCTYPE svg PUBLIC "-//W3C//DTD SVG 1.1//EN" "http://www.w3.org/Graphics/SVG/1.1/DTD/svg11.dtd"><svg id="system-daishouhuo" width="128" height="128" style="width:128px;height:128px;" version="1.1" xmlns="http://www.w3.org/2000/svg" viewBox="0 0 1024 1024" enable-background="new 0 0 1024 1024" xml:space="preserve"><path fill="#666" d="M280 760 q0 -100 0 -170 q0 -70 0 -70 l0 0 l0 -400 q0 0 0 0 q0 0 0 0 l0 0 q0 0 0 0 q0 0 0 0 l0 720 q0 0 0 0 q0 0 0 0 l0 0 l0 -80 ZM480 240 q-17 0 -28.5 -11.5 q-11.5 -11.5 -11.5 -28.5 q0 -17 11.5 -28.5 q11.5 -11.5 28.5 -11.5 q17 0 28.5 11.5 q11.5 11.5 11.5 28.5 q0 17 -11.5 28.5 q-11.5 11.5 -28.5 11.5 ZM320 920 q17 0 28.5 -11.5 q11.5 -11.5 11.5 -28.5 q0 -17 -11.5 -28.5 q-11.5 -11.5 -28.5 -11.5 l-40 0 q0 0 0 0 q0 0 0 0 l0 -720 q0 0 0 0 q0 0 0 0 l400 0 q0 0 0 0 q0 0 0 0 l0 360 q0 17 11.5 28.5 q11.5 11.5 28.5 11.5 q17 0 28.5 -11.5 q11.5 -11.5 11.5 -28.5 l0 -44 q18 -7 29 -22 q11 -15 11 -34 l0 -80 q0 -19 -11 -34 q-11 -15 -29 -22 l0 -124 q0 -33 -23.5 -56.5 q-23.5 -23.5 -56.5 -23.5 l-400 0 q-33 0 -56.5 23.5 q-23.5 23.5 -23.5 56.5 l0 720 q0 33 23.5 56.5 q23.5 23.5 56.5 23.5 l40 0 ZM612 701 q12 -12 11.5 -28 q-0.5 -16 -11.5 -28 q-12 -12 -28 -12.5 q-16 -0.5 -28 11.5 l-88 88 q-12 12 -12 28 q0 16 12 28 l87 87 q12 12 28.5 12 q16.5 0 28.5 -12 q11 -12 11 -28.5 q0 -16.5 -11 -27.5 l-59 -59 l59 -59 ZM748 819 q-12 12 -11.5 28 q0.5 16 11.5 28 q12 12 28 12.5 q16 0.5 28 -11.5 l88 -88 q12 -12 12 -28 q0 -16 -12 -28 l-87 -87 q-12 -12 -28.5 -12 q-16.5 0 -28.5 12 q-11 12 -11 28.5 q0 16.5 11 27.5 l59 59 l-59 59 Z"/></svg>