<?xml version="1.0" encoding="utf-8"?><!DOCTYPE svg PUBLIC "-//W3C//DTD SVG 1.1//EN" "http://www.w3.org/Graphics/SVG/1.1/DTD/svg11.dtd"><svg id="system-daishouhuo" width="128" height="128" style="width:128px;height:128px;" version="1.1" xmlns="http://www.w3.org/2000/svg" viewBox="0 0 1024 1024" enable-background="new 0 0 1024 1024" xml:space="preserve"><path fill="#666" d="M680 920 q33 0 56.5 -23.5 q23.5 -23.5 23.5 -56.5 l0 -404 q18 -7 29 -22 q11 -15 11 -34 l0 -80 q0 -19 -11 -34 q-11 -15 -29 -22 l0 -124 q0 -33 -23.5 -56.5 q-23.5 -23.5 -56.5 -23.5 l-400 0 q-33 0 -56.5 23.5 q-23.5 23.5 -23.5 56.5 l0 720 q0 33 23.5 56.5 q23.5 23.5 56.5 23.5 l400 0 ZM480 240 q-17 0 -28.5 -11.5 q-11.5 -11.5 -11.5 -28.5 q0 -17 11.5 -28.5 q11.5 -11.5 28.5 -11.5 q17 0 28.5 11.5 q11.5 11.5 11.5 28.5 q0 17 -11.5 28.5 q-11.5 11.5 -28.5 11.5 Z"/></svg>