<?xml version="1.0" encoding="utf-8"?><!DOCTYPE svg PUBLIC "-//W3C//DTD SVG 1.1//EN" "http://www.w3.org/Graphics/SVG/1.1/DTD/svg11.dtd"><svg id="system-daishouhuo" width="128" height="128" style="width:128px;height:128px;" version="1.1" xmlns="http://www.w3.org/2000/svg" viewBox="0 0 1024 1024" enable-background="new 0 0 1024 1024" xml:space="preserve"><path fill="#666" d="M512 853 q35 0 60 -25 q25 -25 25 -60 q0 -35 -25 -60 q-25 -25 -60 -25 q-35 0 -60 25 q-25 25 -25 60 q0 35 25 60 q25 25 60 25 ZM512 597 q35 0 60 -25 q25 -25 25 -60 q0 -35 -25 -60 q-25 -25 -60 -25 q-35 0 -60 25 q-25 25 -25 60 q0 35 25 60 q25 25 60 25 ZM512 341 q35 0 60 -25 q25 -25 25 -60 q0 -35 -25 -60 q-25 -25 -60 -25 q-35 0 -60 25 q-25 25 -25 60 q0 35 25 60 q25 25 60 25 Z"/></svg>