<?xml version="1.0" encoding="utf-8"?><!DOCTYPE svg PUBLIC "-//W3C//DTD SVG 1.1//EN" "http://www.w3.org/Graphics/SVG/1.1/DTD/svg11.dtd"><svg id="system-daishouhuo" width="128" height="128" style="width:128px;height:128px;" version="1.1" xmlns="http://www.w3.org/2000/svg" viewBox="0 0 1024 1024" enable-background="new 0 0 1024 1024" xml:space="preserve"><path fill="#666" d="M512 939 q48 0 77.5 -26 q29.5 -26 29.5 -79 q0 -31 -16 -55 q-16 -24 -16 -37 q0 -6 3.5 -11.5 q3.5 -5.5 13.5 -5.5 l79 0 q106 0 181 -65.5 q75 -65.5 75 -188.5 q0 -82 -34 -153 q-34 -71 -91 -122.5 q-57 -51.5 -132.5 -81 q-75.5 -29.5 -160.5 -29.5 q-90 0 -169 34 q-79 34 -138 91.5 q-59 57.5 -94 135 q-35 77.5 -35 166.5 q0 87 34 165 q34 78 92 136 q58 58 136 92 q78 34 165 34 ZM277 555 q-27 0 -45.5 -18.5 q-18.5 -18.5 -18.5 -45.5 q0 -28 18.5 -46 q18.5 -18 45.5 -18 q28 0 46 18 q18 18 18 46 q0 27 -18 45.5 q-18 18.5 -46 18.5 ZM405 384 q-27 0 -45.5 -18 q-18.5 -18 -18.5 -46 q0 -28 18.5 -46 q18.5 -18 45.5 -18 q28 0 46 18 q18 18 18 46 q0 28 -18 46 q-18 18 -46 18 ZM619 384 q-28 0 -46 -18 q-18 -18 -18 -46 q0 -28 18 -46 q18 -18 46 -18 q27 0 45.5 18 q18.5 18 18.5 46 q0 28 -18.5 46 q-18.5 18 -45.5 18 ZM747 555 q-28 0 -46 -18.5 q-18 -18.5 -18 -45.5 q0 -28 18 -46 q18 -18 46 -18 q27 0 45.5 18 q18.5 18 18.5 46 q0 27 -18.5 45.5 q-18.5 18.5 -45.5 18.5 Z"/></svg>