<?xml version="1.0" encoding="utf-8"?><!DOCTYPE svg PUBLIC "-//W3C//DTD SVG 1.1//EN" "http://www.w3.org/Graphics/SVG/1.1/DTD/svg11.dtd"><svg id="system-daishouhuo" width="128" height="128" style="width:128px;height:128px;" version="1.1" xmlns="http://www.w3.org/2000/svg" viewBox="0 0 1024 1024" enable-background="new 0 0 1024 1024" xml:space="preserve"><path fill="#666" d="M280 540 q-25 0 -42.5 -17.5 q-17.5 -17.5 -17.5 -42.5 q0 -25 17.5 -42.5 q17.5 -17.5 42.5 -17.5 q25 0 42.5 17.5 q17.5 17.5 17.5 42.5 q0 25 -17.5 42.5 q-17.5 17.5 -42.5 17.5 ZM480 540 q-25 0 -42.5 -17.5 q-17.5 -17.5 -17.5 -42.5 q0 -25 17.5 -42.5 q17.5 -17.5 42.5 -17.5 q25 0 42.5 17.5 q17.5 17.5 17.5 42.5 q0 25 -17.5 42.5 q-17.5 17.5 -42.5 17.5 ZM680 540 q-25 0 -42.5 -17.5 q-17.5 -17.5 -17.5 -42.5 q0 -25 17.5 -42.5 q17.5 -17.5 42.5 -17.5 q25 0 42.5 17.5 q17.5 17.5 17.5 42.5 q0 25 -17.5 42.5 q-17.5 17.5 -42.5 17.5 ZM480 880 q83 0 156 -31.5 q73 -31.5 127 -85.5 q54 -54 85.5 -127 q31.5 -73 31.5 -156 q0 -83 -31.5 -156 q-31.5 -73 -85.5 -127 q-54 -54 -127 -85.5 q-73 -31.5 -156 -31.5 q-83 0 -156 31.5 q-73 31.5 -127 85.5 q-54 54 -85.5 127 q-31.5 73 -31.5 156 q0 83 31.5 156 q31.5 73 85.5 127 q54 54 127 85.5 q73 31.5 156 31.5 ZM480 800 q-134 0 -227 -93 q-93 -93 -93 -227 q0 -134 93 -227 q93 -93 227 -93 q134 0 227 93 q93 93 93 227 q0 134 -93 227 q-93 93 -227 93 ZM480 480 q0 0 0 0 q0 0 0 0 q0 0 0 0 q0 0 0 0 q0 0 0 0 q0 0 0 0 q0 0 0 0 q0 0 0 0 Z"/></svg>