<?xml version="1.0" encoding="utf-8"?><!DOCTYPE svg PUBLIC "-//W3C//DTD SVG 1.1//EN" "http://www.w3.org/Graphics/SVG/1.1/DTD/svg11.dtd"><svg id="system-daishouhuo" width="128" height="128" style="width:128px;height:128px;" version="1.1" xmlns="http://www.w3.org/2000/svg" viewBox="0 0 1024 1024" enable-background="new 0 0 1024 1024" xml:space="preserve"><path fill="#666" d="M512 512 q70 0 120.5 -50 q50.5 -50 50.5 -121 q0 -70 -50.5 -120 q-50.5 -50 -120.5 -50 q-70 0 -120.5 50 q-50.5 50 -50.5 120 q0 71 50.5 121 q50.5 50 120.5 50 ZM171 768 q0 35 25 60 q25 25 60 25 l512 0 q35 0 60 -25 q25 -25 25 -60 l0 -34 q0 -36 -18.5 -66.5 q-18.5 -30.5 -49.5 -46.5 q-66 -33 -134.5 -49.5 q-68.5 -16.5 -138.5 -16.5 q-70 0 -138.5 16.5 q-68.5 16.5 -134.5 49.5 q-31 16 -49.5 46.5 q-18.5 30.5 -18.5 66.5 l0 34 Z"/></svg>