<?xml version="1.0" encoding="utf-8"?><!DOCTYPE svg PUBLIC "-//W3C//DTD SVG 1.1//EN" "http://www.w3.org/Graphics/SVG/1.1/DTD/svg11.dtd"><svg id="system-daishouhuo" width="128" height="128" style="width:128px;height:128px;" version="1.1" xmlns="http://www.w3.org/2000/svg" viewBox="0 0 1024 1024" enable-background="new 0 0 1024 1024" xml:space="preserve"><path fill="#666" d="M480 800 q93 0 169 -48 q76 -48 117 -128 q8 -14 1 -30 q-7 -16 -23 -21 q-15 -5 -29.5 0.5 q-14.5 5.5 -22.5 19.5 q-31 58 -87.5 92.5 q-56.5 34.5 -124.5 34.5 q-100 0 -170 -70 q-70 -70 -70 -170 q0 -100 70 -170 q70 -70 170 -70 q65 0 120.5 32 q55.5 32 87.5 88 l-128 0 q-17 0 -28.5 11.5 q-11.5 11.5 -11.5 28.5 q0 17 11.5 28.5 q11.5 11.5 28.5 11.5 l200 0 q17 0 28.5 -11.5 q11.5 -11.5 11.5 -28.5 l0 -200 q0 -17 -11.5 -28.5 q-11.5 -11.5 -28.5 -11.5 q-17 0 -28.5 11.5 q-11.5 11.5 -11.5 28.5 l0 70 q-45 -53 -108 -81.5 q-63 -28.5 -132 -28.5 q-134 0 -227 93 q-93 93 -93 227 q0 134 93 227 q93 93 227 93 Z"/></svg>