<?xml version="1.0" encoding="utf-8"?><!DOCTYPE svg PUBLIC "-//W3C//DTD SVG 1.1//EN" "http://www.w3.org/Graphics/SVG/1.1/DTD/svg11.dtd"><svg id="system-daishouhuo" width="128" height="128" style="width:128px;height:128px;" version="1.1" xmlns="http://www.w3.org/2000/svg" viewBox="0 0 1024 1024" enable-background="new 0 0 1024 1024" xml:space="preserve"><path fill="#666" d="M380 657 q44 0 83 -14 q39 -14 69 -38 l224 224 q11 11 28 11 q17 0 28 -11 q11 -11 11 -28 q0 -17 -11 -28 l-224 -224 q24 -30 38 -69 q14 -39 14 -83 q0 -109 -75.5 -184.5 q-75.5 -75.5 -184.5 -75.5 q-109 0 -184.5 75.5 q-75.5 75.5 -75.5 184.5 q0 109 75.5 184.5 q75.5 75.5 184.5 75.5 ZM380 577 q-75 0 -127.5 -52.5 q-52.5 -52.5 -52.5 -127.5 q0 -75 52.5 -127.5 q52.5 -52.5 127.5 -52.5 q75 0 127.5 52.5 q52.5 52.5 52.5 127.5 q0 75 -52.5 127.5 q-52.5 52.5 -127.5 52.5 Z"/></svg>