<?xml version="1.0" encoding="utf-8"?><!DOCTYPE svg PUBLIC "-//W3C//DTD SVG 1.1//EN" "http://www.w3.org/Graphics/SVG/1.1/DTD/svg11.dtd"><svg id="system-daishouhuo" width="128" height="128" style="width:128px;height:128px;" version="1.1" xmlns="http://www.w3.org/2000/svg" viewBox="0 0 1024 1024" enable-background="new 0 0 1024 1024" xml:space="preserve"><path fill="#666" d="M512 510 l-254 0 q-2 -12 -2 -19.5 q0 -7.5 0 -18.5 l0 -202 q0 0 0 0 q0 0 0 0 l256 -96 l0 336 l254 0 q-12 116 -81.5 210.5 q-69.5 94.5 -172.5 126.5 l0 -337 ZM512 932 q7 0 13.5 -1 q6.5 -1 13.5 -3 q144 -48 229 -177.5 q85 -129.5 85 -278.5 l0 -202 q0 -27 -15.5 -48 q-15.5 -21 -39.5 -31 l-256 -96 q-15 -5 -30 -5 q-15 0 -30 5 l-256 96 q-24 10 -39.5 31 q-15.5 21 -15.5 48 l0 202 q0 149 85 278.5 q85 129.5 229 177.5 q7 2 13.5 3 q6.5 1 13.5 1 Z"/></svg>