<?xml version="1.0" encoding="utf-8"?><!DOCTYPE svg PUBLIC "-//W3C//DTD SVG 1.1//EN" "http://www.w3.org/Graphics/SVG/1.1/DTD/svg11.dtd"><svg id="system-daishouhuo" width="128" height="128" style="width:128px;height:128px;" version="1.1" xmlns="http://www.w3.org/2000/svg" viewBox="0 0 1024 1024" enable-background="new 0 0 1024 1024" xml:space="preserve"><path fill="#666" d="M562 939 q29 0 50 -19.5 q21 -19.5 25 -46.5 l9 -71 q13 -5 26 -12.5 q13 -7.5 25 -16.5 l64 28 q26 12 53 2.5 q27 -9.5 41 -34.5 l52 -87 q15 -25 8.5 -52.5 q-6.5 -27.5 -29.5 -46.5 l-56 -42 q2 -8 2 -15 q0 -7 0 -14 q0 -7 0 -14 q0 -7 -1 -15 l56 -42 q23 -19 29.5 -46.5 q6.5 -27.5 -8.5 -52.5 l-50 -87 q-15 -25 -42 -34.5 q-27 -9.5 -53 2.5 l-66 28 q-12 -9 -24.5 -16.5 q-12.5 -7.5 -26.5 -12.5 l-9 -71 q-4 -27 -25 -46.5 q-21 -19.5 -50 -19.5 l-100 0 q-29 0 -50 19.5 q-21 19.5 -25 46.5 l-9 71 q-13 5 -26 12.5 q-13 7.5 -25 16.5 l-66 -28 q-26 -12 -53 -2.5 q-27 9.5 -42 34.5 l-50 87 q-15 25 -8.5 52.5 q6.5 27.5 29.5 46.5 l56 42 q-1 8 -1 15 q0 7 0 14 q0 7 0 14 q0 7 1 15 l-56 42 q-23 19 -29.5 46.5 q-6.5 27.5 8.5 52.5 l50 87 q15 25 42 34.5 q27 9.5 53 -2.5 l66 -28 q12 9 24.5 16.5 q12.5 7.5 26.5 12.5 l9 71 q4 27 25 46.5 q21 19.5 50 19.5 l100 0 ZM514 661 q-63 0 -106 -43.5 q-43 -43.5 -43 -105.5 q0 -62 43 -105.5 q43 -43.5 106 -43.5 q62 0 105.5 43.5 q43.5 43.5 43.5 105.5 q0 62 -43.5 105.5 q-43.5 43.5 -105.5 43.5 Z"/></svg>