<?xml version="1.0" encoding="utf-8"?><!DOCTYPE svg PUBLIC "-//W3C//DTD SVG 1.1//EN" "http://www.w3.org/Graphics/SVG/1.1/DTD/svg11.dtd"><svg id="system-daishouhuo" width="128" height="128" style="width:128px;height:128px;" version="1.1" xmlns="http://www.w3.org/2000/svg" viewBox="0 0 1024 1024" enable-background="new 0 0 1024 1024" xml:space="preserve"><path fill="#666" d="M428 620 q-12 -5 -22.5 -10.5 q-10.5 -5.5 -21.5 -13.5 l-29 9 q-13 4 -25 -1 q-12 -5 -19 -16 l-9 -15 q-7 -12 -5 -25.5 q2 -13.5 13 -22.5 l22 -19 q-2 -14 -2 -26 q0 -12 2 -26 l-22 -19 q-11 -9 -13 -23 q-2 -14 5 -26 l8 -14 q7 -11 19.5 -16 q12.5 -5 25.5 -1 l29 9 q11 -8 21.5 -13.5 q10.5 -5.5 22.5 -10.5 l6 -28 q3 -14 13.5 -23 q10.5 -9 24.5 -9 l16 0 q14 0 24.5 8.5 q10.5 8.5 13.5 22.5 l6 29 q12 5 22.5 10.5 q10.5 5.5 21.5 13.5 l29 -9 q13 -4 25 1 q12 5 19 16 l9 15 q7 12 5 25.5 q-2 13.5 -13 22.5 l-22 19 q2 14 2 26 q0 12 -2 26 l22 19 q11 9 13 23 q2 14 -5 26 l-8 14 q-7 11 -19.5 16 q-12.5 5 -25.5 1 l-29 -9 q-11 8 -21.5 13.5 q-10.5 5.5 -22.5 10.5 l-6 28 q-3 14 -13.5 23 q-10.5 9 -24.5 9 l-16 0 q-14 0 -24.5 -8.5 q-10.5 -8.5 -13.5 -22.5 l-6 -29 ZM480 560 q33 0 56.5 -23.5 q23.5 -23.5 23.5 -56.5 q0 -33 -23.5 -56.5 q-23.5 -23.5 -56.5 -23.5 q-33 0 -56.5 23.5 q-23.5 23.5 -23.5 56.5 q0 33 23.5 56.5 q23.5 23.5 56.5 23.5 ZM760 840 q33 0 56.5 -23.5 q23.5 -23.5 23.5 -56.5 l0 -560 q0 -33 -23.5 -56.5 q-23.5 -23.5 -56.5 -23.5 l-560 0 q-33 0 -56.5 23.5 q-23.5 23.5 -23.5 56.5 l0 560 q0 33 23.5 56.5 q23.5 23.5 56.5 23.5 l560 0 ZM200 760 q0 0 0 0 q0 0 0 0 l0 -560 q0 0 0 0 q0 0 0 0 l560 0 q0 0 0 0 q0 0 0 0 l0 560 q0 0 0 0 q0 0 0 0 l-560 0 ZM200 200 q0 0 0 0 q0 0 0 0 l0 560 q0 0 0 0 q0 0 0 0 l0 0 q0 0 0 0 q0 0 0 0 l0 -560 q0 0 0 0 q0 0 0 0 l0 0 Z"/></svg>