<?xml version="1.0" encoding="utf-8"?><!DOCTYPE svg PUBLIC "-//W3C//DTD SVG 1.1//EN" "http://www.w3.org/Graphics/SVG/1.1/DTD/svg11.dtd"><svg id="system-daishouhuo" width="128" height="128" style="width:128px;height:128px;" version="1.1" xmlns="http://www.w3.org/2000/svg" viewBox="0 0 1024 1024" enable-background="new 0 0 1024 1024" xml:space="preserve"><path fill="#666" d="M412 792 q-45 -9 -84.5 -30.5 q-39.5 -21.5 -71.5 -53.5 q29 -14 60.5 -21 q31.5 -7 63.5 -7 q9 0 17.5 0 q8.5 0 20.5 2 q18 -18 38.5 -34 q20.5 -16 43.5 -28 q-29 -9 -58.5 -14.5 q-29.5 -5.5 -61.5 -5.5 q-45 0 -89 11 q-44 11 -85 31 q-23 -35 -34.5 -76 q-11.5 -41 -11.5 -86 q0 -134 93 -227 q93 -93 227 -93 q134 0 227 93 q93 93 93 227 q0 48 -14 92 q-14 44 -38 82 q-21 -6 -43 -10 q-22 -4 -45 -4 q-53 0 -128 30.5 q-75 30.5 -120 121.5 ZM480 880 q83 0 156 -31.5 q73 -31.5 127 -85.5 q54 -54 85.5 -127 q31.5 -73 31.5 -156 q0 -83 -31.5 -156 q-31.5 -73 -85.5 -127 q-54 -54 -127 -85.5 q-73 -31.5 -156 -31.5 q-83 0 -156 31.5 q-73 31.5 -127 85.5 q-54 54 -85.5 127 q-31.5 73 -31.5 156 q0 83 31.5 156 q31.5 73 85.5 127 q54 54 127 85.5 q73 31.5 156 31.5 ZM380 540 q58 0 99 -41 q41 -41 41 -99 q0 -58 -41 -99 q-41 -41 -99 -41 q-58 0 -99 41 q-41 41 -41 99 q0 58 41 99 q41 41 99 41 ZM380 460 q-25 0 -42.5 -17.5 q-17.5 -17.5 -17.5 -42.5 q0 -25 17.5 -42.5 q17.5 -17.5 42.5 -17.5 q25 0 42.5 17.5 q17.5 17.5 17.5 42.5 q0 25 -17.5 42.5 q-17.5 17.5 -42.5 17.5 ZM660 580 q42 0 71 -29 q29 -29 29 -71 q0 -42 -29 -71 q-29 -29 -71 -29 q-42 0 -71 29 q-29 29 -29 71 q0 42 29 71 q29 29 71 29 ZM480 480 q0 0 0 0 q0 0 0 0 q0 0 0 0 q0 0 0 0 q0 0 0 0 q0 0 0 0 q0 0 0 0 q0 0 0 0 Z"/></svg>