<?xml version="1.0" encoding="utf-8"?><!DOCTYPE svg PUBLIC "-//W3C//DTD SVG 1.1//EN" "http://www.w3.org/Graphics/SVG/1.1/DTD/svg11.dtd"><svg id="system-daishouhuo" width="128" height="128" style="width:128px;height:128px;" version="1.1" xmlns="http://www.w3.org/2000/svg" viewBox="0 0 1024 1024" enable-background="new 0 0 1024 1024" xml:space="preserve"><path fill="#666" d="M480 880 q83 0 156 -31.5 q73 -31.5 127 -85.5 q54 -54 85.5 -127 q31.5 -73 31.5 -156 q0 -83 -31.5 -156 q-31.5 -73 -85.5 -127 q-54 -54 -127 -85.5 q-73 -31.5 -156 -31.5 q-83 0 -156 31.5 q-73 31.5 -127 85.5 q-54 54 -85.5 127 q-31.5 73 -31.5 156 q0 83 31.5 156 q31.5 73 85.5 127 q54 54 127 85.5 q73 31.5 156 31.5 ZM380 540 q-58 0 -99 -41 q-41 -41 -41 -99 q0 -58 41 -99 q41 -41 99 -41 q58 0 99 41 q41 41 41 99 q0 58 -41 99 q-41 41 -99 41 ZM660 580 q-42 0 -71 -29 q-29 -29 -29 -71 q0 -42 29 -71 q29 -29 71 -29 q42 0 71 29 q29 29 29 71 q0 42 -29 71 q-29 29 -71 29 ZM480 800 q-17 0 -34 -1.5 q-17 -1.5 -34 -5.5 q45 -91 120 -122 q75 -31 128 -31 q23 0 45 4 q22 4 43 10 q-43 66 -113 106 q-70 40 -155 40 ZM353 774 q-46 -20 -83.5 -54.5 q-37.5 -34.5 -63.5 -77.5 q41 -20 85 -31 q44 -11 89 -11 q32 0 61.5 5.5 q29.5 5.5 58.5 14.5 q-23 12 -67.5 47 q-44.5 35 -79.5 107 Z"/></svg>