<?xml version="1.0" encoding="utf-8"?><!DOCTYPE svg PUBLIC "-//W3C//DTD SVG 1.1//EN" "http://www.w3.org/Graphics/SVG/1.1/DTD/svg11.dtd"><svg id="system-daishouhuo" width="128" height="128" style="width:128px;height:128px;" version="1.1" xmlns="http://www.w3.org/2000/svg" viewBox="0 0 1024 1024" enable-background="new 0 0 1024 1024" xml:space="preserve"><path fill="#666" d="M520 640 l-28 112 q-5 18 7 33 q12 15 31 15 q14 0 24 -8 q10 -8 13 -21 l33 -131 l129 0 q14 0 25 -8 q11 -8 14 -22 q5 -19 -7 -34.5 q-12 -15.5 -32 -15.5 l-109 0 l40 -160 l129 0 q14 0 25 -8 q11 -8 14 -22 q5 -19 -7 -34.5 q-12 -15.5 -32 -15.5 l-109 0 l28 -112 q5 -18 -7 -33 q-12 -15 -31 -15 q-14 0 -24 8 q-10 8 -13 21 l-33 131 l-160 0 l28 -112 q5 -18 -7 -33 q-12 -15 -31 -15 q-14 0 -24 8 q-10 8 -13 21 l-33 131 l-129 0 q-14 0 -25 8 q-11 8 -14 22 q-5 19 7 34.5 q12 15.5 32 15.5 l109 0 l-40 160 l-129 0 q-14 0 -25 8 q-11 8 -14 22 q-5 19 7 34.5 q12 15.5 32 15.5 l109 0 l-28 112 q-5 18 7 33 q12 15 31 15 q14 0 24 -8 q10 -8 13 -21 l33 -131 l160 0 ZM420 400 l160 0 l-40 160 l-160 0 l40 -160 Z"/></svg>