<?xml version="1.0" encoding="utf-8"?><!DOCTYPE svg PUBLIC "-//W3C//DTD SVG 1.1//EN" "http://www.w3.org/Graphics/SVG/1.1/DTD/svg11.dtd"><svg id="system-daishouhuo" width="128" height="128" style="width:128px;height:128px;" version="1.1" xmlns="http://www.w3.org/2000/svg" viewBox="0 0 1024 1024" enable-background="new 0 0 1024 1024" xml:space="preserve"><path fill="#666" d="M850 809 l36 102 q6 13 16 20.5 q10 7.5 24 7.5 q21 0 34 -18 q13 -18 4 -38 l-162 -430 q-5 -11 -16 -18.5 q-11 -7.5 -23 -7.5 l-32 0 q-13 0 -23.5 7.5 q-10.5 7.5 -16.5 18.5 l-162 429 q-8 21 5 39 q13 18 35 18 q12 0 23 -7.5 q11 -7.5 15 -19.5 l36 -103 l207 0 ZM516 730 l32 -88 l-102 -104 q44 -43 88.5 -124 q44.5 -81 67.5 -158 l81 0 q18 0 30 -12.5 q12 -12.5 12 -30.5 q0 -18 -12 -30 q-12 -12 -30 -12 l-256 0 l0 -43 q0 -18 -12.5 -30.5 q-12.5 -12.5 -30.5 -12.5 q-18 0 -30.5 12.5 q-12.5 12.5 -12.5 30.5 l0 43 l-256 0 q-18 0 -30 12 q-12 12 -12 30 q0 18 12 30.5 q12 12.5 30 12.5 l431 0 q-19 58 -57 121.5 q-38 63.5 -73 98.5 q-30 -31 -51 -62 q-21 -31 -43 -73 l-89 0 q25 61 55.5 109 q30.5 48 67.5 85 l-185 186 q-12 12 -12 30 q0 18 12 30 q13 13 30.5 12.5 q17.5 -0.5 29.5 -12.5 l185 -185 l130 134 ZM747 516 l76 218 l-153 0 l77 -218 Z"/></svg>