<?xml version="1.0" encoding="utf-8"?><!DOCTYPE svg PUBLIC "-//W3C//DTD SVG 1.1//EN" "http://www.w3.org/Graphics/SVG/1.1/DTD/svg11.dtd"><svg id="system-daishouhuo" width="128" height="128" style="width:128px;height:128px;" version="1.1" xmlns="http://www.w3.org/2000/svg" viewBox="0 0 1024 1024" enable-background="new 0 0 1024 1024" xml:space="preserve"><path fill="#666" d="M512 896 q134 0 237.5 -81.5 q103.5 -81.5 134.5 -208.5 q5 -16 -6 -29.5 q-11 -13.5 -29 -15.5 q-17 -2 -31 6.5 q-14 8.5 -19 25.5 q-26 96 -106 157 q-80 61 -181 61 q-125 0 -212 -87 q-87 -87 -87 -212 q0 -125 87 -212 q87 -87 212 -87 q74 0 138 34.5 q64 34.5 107 93.5 l-74 0 q-18 0 -30.5 12.5 q-12.5 12.5 -12.5 30.5 q0 18 12.5 30.5 q12.5 12.5 30.5 12.5 l170 0 q18 0 30.5 -12.5 q12.5 -12.5 12.5 -30.5 l0 -171 q0 -18 -12.5 -30 q-12.5 -12 -30.5 -12 q-18 0 -30 12 q-12 12 -12 30 l0 58 q-55 -68 -133.5 -105.5 q-78.5 -37.5 -165.5 -37.5 q-80 0 -150 30.5 q-70 30.5 -121.5 82 q-51.5 51.5 -82 121.5 q-30.5 70 -30.5 150 q0 80 30.5 150 q30.5 70 82 121.5 q51.5 51.5 121.5 82 q70 30.5 150 30.5 ZM555 341 q0 -18 -12.5 -30 q-12.5 -12 -30.5 -12 q-18 0 -30.5 12 q-12.5 12 -12.5 30 l0 170 q0 8 3.5 16 q3.5 8 9.5 15 l120 119 q11 12 29.5 12 q18.5 0 29.5 -12 q12 -11 12 -29.5 q0 -18.5 -12 -29.5 l-106 -107 l0 -154 Z"/></svg>