<?xml version="1.0" encoding="utf-8"?><!DOCTYPE svg PUBLIC "-//W3C//DTD SVG 1.1//EN" "http://www.w3.org/Graphics/SVG/1.1/DTD/svg11.dtd"><svg id="system-daishouhuo" width="128" height="128" style="width:128px;height:128px;" version="1.1" xmlns="http://www.w3.org/2000/svg" viewBox="0 0 1024 1024" enable-background="new 0 0 1024 1024" xml:space="preserve"><path fill="#666" d="M768 835 q35 0 60 -25 q25 -25 25 -60 l0 -85 q0 -18 -12 -30.5 q-12 -12.5 -30 -12.5 q-18 0 -30.5 12.5 q-12.5 12.5 -12.5 30.5 l0 85 q0 0 0 0 q0 0 0 0 l-512 0 q0 0 0 0 q0 0 0 0 l0 -85 q0 -18 -12.5 -30.5 q-12.5 -12.5 -30.5 -12.5 q-18 0 -30 12.5 q-12 12.5 -12 30.5 l0 85 q0 35 25 60 q25 25 60 25 l512 0 ZM469 622 q0 18 12.5 30.5 q12.5 12.5 30.5 12.5 q18 0 30.5 -12.5 q12.5 -12.5 12.5 -30.5 l0 -305 l80 80 q12 13 30 12.5 q18 -0.5 30 -13.5 q12 -13 12.5 -30 q0.5 -17 -12.5 -30 l-153 -153 q-7 -7 -14 -9.5 q-7 -2.5 -16 -2.5 q-9 0 -16 2.5 q-7 2.5 -14 9.5 l-153 153 q-13 13 -12.5 30 q0.5 17 12.5 30 q12 13 30 13.5 q18 0.5 30 -12.5 l80 -80 l0 305 Z"/></svg>