<?xml version="1.0" encoding="utf-8"?><!DOCTYPE svg PUBLIC "-//W3C//DTD SVG 1.1//EN" "http://www.w3.org/Graphics/SVG/1.1/DTD/svg11.dtd"><svg id="system-daishouhuo" width="128" height="128" style="width:128px;height:128px;" version="1.1" xmlns="http://www.w3.org/2000/svg" viewBox="0 0 1024 1024" enable-background="new 0 0 1024 1024" xml:space="preserve"><path fill="#666" d="M579 367 q12 -12 28.5 -11.5 q16.5 0.5 28.5 12.5 q11 12 11.5 28 q0.5 16 -11.5 28 l-170 170 q-12 12 -28 12 q-16 0 -28 -12 l-86 -86 q-11 -11 -11 -28 q0 -17 11 -28 q12 -12 28.5 -12 q16.5 0 27.5 11 l58 57 l141 -141 ZM326 870 q8 13 22 17.5 q14 4.5 28 -1.5 l104 -44 l104 44 q14 6 28 1.5 q14 -4.5 22 -17.5 l58 -98 l110 -24 q15 -3 24 -15.5 q9 -12.5 7 -27.5 l-11 -113 l75 -86 q10 -11 10 -26 q0 -15 -10 -26 l-75 -86 l11 -113 q2 -15 -7 -27.5 q-9 -12.5 -24 -15.5 l-110 -24 l-58 -98 q-8 -13 -22 -17.5 q-14 -4.5 -28 1.5 l-104 44 l-104 -44 q-14 -6 -28 -1.5 q-14 4.5 -22 17.5 l-58 98 l-110 24 q-15 3 -24 15.5 q-9 12.5 -7 27.5 l11 113 l-75 86 q-10 11 -10 26 q0 15 10 26 l75 86 l-11 113 q-2 15 7 27.5 q9 12.5 24 15.5 l110 24 l58 98 ZM320 702 l-110 -24 l10 -114 l-74 -84 l74 -86 l-10 -112 l110 -24 l56 -96 l104 44 l102 -44 l58 96 l110 24 l-10 112 l74 86 l-74 84 l10 112 l-110 26 l-56 96 l-104 -44 l-102 44 l-58 -96 ZM480 480 l0 0 l0 0 l0 0 l0 0 l0 0 l0 0 l0 0 l0 0 l0 0 l0 0 l0 0 l0 0 l0 0 l0 0 l0 0 l0 0 l0 0 l0 0 l0 0 l0 0 Z"/></svg>