<?xml version="1.0" encoding="utf-8"?><!DOCTYPE svg PUBLIC "-//W3C//DTD SVG 1.1//EN" "http://www.w3.org/Graphics/SVG/1.1/DTD/svg11.dtd"><svg id="system-daishouhuo" width="128" height="128" style="width:128px;height:128px;" version="1.1" xmlns="http://www.w3.org/2000/svg" viewBox="0 0 1024 1024" enable-background="new 0 0 1024 1024" xml:space="preserve"><path fill="#666" d="M908 896 q11 0 21 -6 q10 -6 15 -15 q5 -10 5.5 -21 q0.5 -11 -5.5 -22 l-395 -683 q-6 -10 -16 -15.5 q-10 -5.5 -21 -5.5 q-11 0 -21 5.5 q-10 5.5 -16 15.5 l-395 683 q-6 11 -5.5 22 q0.5 11 5.5 21 q5 9 15 15 q10 6 21 6 l792 0 ZM512 768 q-18 0 -30.5 -12.5 q-12.5 -12.5 -12.5 -30.5 q0 -18 12.5 -30 q12.5 -12 30.5 -12 q18 0 30.5 12 q12.5 12 12.5 30 q0 18 -12.5 30.5 q-12.5 12.5 -30.5 12.5 ZM512 640 q-18 0 -30.5 -12.5 q-12.5 -12.5 -12.5 -30.5 l0 -128 q0 -18 12.5 -30 q12.5 -12 30.5 -12 q18 0 30.5 12 q12.5 12 12.5 30 l0 128 q0 18 -12.5 30.5 q-12.5 12.5 -30.5 12.5 Z"/></svg>