<?xml version="1.0" encoding="utf-8"?><!DOCTYPE svg PUBLIC "-//W3C//DTD SVG 1.1//EN" "http://www.w3.org/Graphics/SVG/1.1/DTD/svg11.dtd"><svg id="system-daishouhuo" width="128" height="128" style="width:128px;height:128px;" version="1.1" xmlns="http://www.w3.org/2000/svg" viewBox="0 0 1024 1024" enable-background="new 0 0 1024 1024" xml:space="preserve"><path fill="#666" d="M811 896 q35 0 60 -25 q25 -25 25 -60 l0 -598 q0 -35 -25 -60 q-25 -25 -60 -25 l-598 0 q-35 0 -60 25 q-25 25 -25 60 l0 598 q0 35 25 60 q25 25 60 25 l598 0 ZM213 811 q0 0 0 0 q0 0 0 0 l0 -512 l598 0 l0 512 q0 0 0 0 q0 0 0 0 l-598 0 ZM683 512 q18 0 30 -12.5 q12 -12.5 12 -30.5 q0 -18 -12 -30 q-12 -12 -30 -12 l-342 0 q-18 0 -30 12 q-12 12 -12 30 q0 18 12 30.5 q12 12.5 30 12.5 l342 0 ZM512 683 q18 0 30.5 -12.5 q12.5 -12.5 12.5 -30.5 q0 -18 -12.5 -30.5 q-12.5 -12.5 -30.5 -12.5 l-171 0 q-18 0 -30 12.5 q-12 12.5 -12 30.5 q0 18 12 30.5 q12 12.5 30 12.5 l171 0 Z"/></svg>